<?xml version="1.0" standalone="no"?>
<!DOCTYPE svg PUBLIC "-//W3C//DTD SVG 20010904//EN"
 "http://www.w3.org/TR/2001/REC-SVG-20010904/DTD/svg10.dtd">
<svg version="1.0" xmlns="http://www.w3.org/2000/svg"
 width="700.000000pt" height="700.000000pt" viewBox="0 0 700.000000 700.000000"
 preserveAspectRatio="xMidYMid meet">
<metadata>
Created by potrace 1.14, written by Peter Selinger 2001-2017
</metadata>
<g transform="translate(0.000000,700.000000) scale(0.100000,-0.100000)"
fill="#000000" stroke="none">
<path d="M2140 5852 c-78 -35 -85 -61 -84 -328 1 -209 2 -223 22 -256 52 -84
173 -79 224 9 14 24 16 61 16 248 0 139 -4 233 -12 255 -20 60 -107 98 -166
72z"/>
<path d="M1013 5384 c-53 -26 -79 -83 -66 -146 10 -50 325 -364 376 -373 65
-13 127 22 154 85 10 25 10 42 -1 86 -7 27 -321 343 -354 355 -34 13 -73 11
-109 -7z"/>
<path d="M3235 5381 c-16 -10 -98 -88 -181 -172 -163 -165 -174 -184 -155
-256 19 -71 113 -113 177 -80 34 18 335 318 346 344 45 115 -84 228 -187 164z"/>
<path d="M2147 4944 c-1 -1 -27 -4 -57 -8 -179 -20 -332 -97 -468 -236 -152
-154 -226 -349 -217 -570 2 -58 6 -114 8 -125 3 -11 8 -33 12 -50 7 -34 11
-43 53 -137 58 -127 174 -259 292 -329 85 -50 190 -93 249 -103 24 -4 47 -9
51 -11 4 -3 -7 -33 -25 -67 -29 -58 -48 -117 -63 -193 -5 -28 -5 -157 1 -247
1 -21 5 -38 9 -38 4 0 12 -19 18 -42 7 -24 18 -53 26 -65 7 -12 16 -59 19
-104 6 -91 18 -119 68 -150 24 -15 44 -19 80 -16 28 2 51 0 55 -7 9 -14 130
-81 167 -92 83 -25 129 -35 175 -39 72 -6 1658 -6 1690 0 242 45 417 145 578
328 17 20 32 41 32 46 0 5 4 11 9 13 15 5 95 170 106 218 2 8 11 40 19 70 10
40 14 94 11 195 -2 119 -6 152 -28 218 -104 311 -333 515 -652 578 -60 12
-220 15 -265 5 -91 -20 -83 -25 -107 56 -32 105 -86 192 -178 283 -218 217
-531 261 -805 112 -30 -17 -58 -35 -62 -41 -4 -6 -12 3 -18 19 -25 70 -36 93
-64 140 -110 185 -282 313 -491 365 -65 16 -218 32 -228 24z"/>
<path d="M566 4275 c-22 -8 -43 -20 -48 -27 -25 -38 -32 -57 -34 -94 -2 -33 4
-49 27 -78 17 -19 44 -39 62 -44 18 -5 131 -8 253 -7 192 0 224 3 247 18 85
56 83 173 -4 226 -27 17 -53 19 -247 19 -156 0 -228 -4 -256 -13z"/>
<path d="M1295 3440 c-30 -13 -333 -321 -343 -350 -5 -14 -8 -43 -6 -65 2 -32
11 -47 45 -78 46 -41 86 -47 140 -21 14 7 95 83 180 168 129 130 156 162 165
198 9 34 8 50 -3 77 -7 19 -15 35 -16 36 -1 1 -15 11 -31 23 -30 23 -92 29
-131 12z"/>
<path d="M3710 2182 c-49 -8 -75 -54 -95 -165 -10 -56 -20 -111 -22 -122 -6
-43 -12 -81 -16 -100 -10 -42 -20 -112 -22 -150 -2 -34 3 -45 31 -72 18 -18
41 -34 51 -34 10 -1 25 -2 33 -3 16 -1 69 30 83 49 10 14 29 84 32 120 4 36
13 96 25 150 5 22 12 63 16 90 3 28 8 54 11 58 3 5 7 33 8 62 3 48 0 55 -28
83 -34 31 -66 42 -107 34z"/>
<path d="M3018 2079 c-62 -31 -64 -36 -113 -314 -3 -16 -10 -55 -16 -85 -21
-113 -22 -166 -4 -194 36 -55 126 -65 168 -18 19 20 38 67 42 102 6 52 19 124
31 180 8 36 11 58 19 120 4 30 11 64 14 75 8 22 8 28 -4 68 -9 32 -70 78 -93
70 -10 -4 -13 -2 -8 5 8 14 11 15 -36 -9z"/>
</g>
</svg>
